<svg xmlns="http://www.w3.org/2000/svg" width="238.496" height="30.039" viewBox="0 0 238.496 30.039">
  <path id="Path_1" data-name="Path 1" d="M30.9-6.152a7.02,7.02,0,0,1-.322,2.012,5.886,5.886,0,0,1-1.055,1.992,5.9,5.9,0,0,1-1.9,1.533A6.117,6.117,0,0,1,24.746,0H5.469A2.614,2.614,0,0,1,4.453-.2a2.483,2.483,0,0,1-.811-.537,2.483,2.483,0,0,1-.537-.811,2.614,2.614,0,0,1-.2-1.016V-25.449a2.564,2.564,0,0,1,.2-1,2.6,2.6,0,0,1,.537-.82,2.409,2.409,0,0,1,.811-.547,2.614,2.614,0,0,1,1.016-.2H22.461a6.831,6.831,0,0,1,2.012.332,6.139,6.139,0,0,1,2,1.064,5.842,5.842,0,0,1,1.543,1.9,6.117,6.117,0,0,1,.615,2.871v.957a10.47,10.47,0,0,1-.449,2.9,9.58,9.58,0,0,1-1.445,2.939,8.972,8.972,0,0,1,1.611,1.27,8.128,8.128,0,0,1,1.318,1.719,9.107,9.107,0,0,1,.9,2.207A10.408,10.408,0,0,1,30.9-7.129ZM25.82-7.129a4.831,4.831,0,0,0-.312-1.787,3.942,3.942,0,0,0-.879-1.357,3.811,3.811,0,0,0-1.367-.869,5.05,5.05,0,0,0-1.8-.3H10.02v-5.117h9.16a5.05,5.05,0,0,0,1.8-.3,3.811,3.811,0,0,0,1.367-.869,3.827,3.827,0,0,0,.869-1.357,4.97,4.97,0,0,0,.3-1.787v-.957q0-1.094-1.055-1.094H7.988V-5.078H24.746q.137,0,.332-.02a.8.8,0,0,0,.352-.117.8.8,0,0,0,.273-.332,1.461,1.461,0,0,0,.117-.645Zm31.895,0a7.756,7.756,0,0,1-.332,2.354A6.858,6.858,0,0,1,56.5-2.939a5.973,5.973,0,0,1-1.27,1.348,7.408,7.408,0,0,1-1.514.908,7.781,7.781,0,0,1-1.6.518A7.653,7.653,0,0,1,50.586,0h-9.16a8.144,8.144,0,0,1-2.3-.371,6.778,6.778,0,0,1-2.314-1.221A6.846,6.846,0,0,1,35.029-3.8a7.094,7.094,0,0,1-.713-3.33V-14a7.048,7.048,0,0,1,.713-3.311,6.846,6.846,0,0,1,1.777-2.207,6.778,6.778,0,0,1,2.314-1.221,8.144,8.144,0,0,1,2.3-.371h9.16a7.191,7.191,0,0,1,3.32.7,6.605,6.605,0,0,1,2.207,1.768,7.012,7.012,0,0,1,1.221,2.314A8.007,8.007,0,0,1,57.715-14Zm-5.078-6.836a2.079,2.079,0,0,0-.527-1.562,2.111,2.111,0,0,0-1.523-.508H41.465a2.115,2.115,0,0,0-1.543.518A2.028,2.028,0,0,0,39.395-14v6.875a2.063,2.063,0,0,0,.527,1.523,2.091,2.091,0,0,0,1.543.527h9.121a2.051,2.051,0,0,0,1.543-.527,2.111,2.111,0,0,0,.508-1.523ZM85-7.129a7.756,7.756,0,0,1-.332,2.354,6.858,6.858,0,0,1-.879,1.836,5.973,5.973,0,0,1-1.27,1.348,7.408,7.408,0,0,1-1.514.908,7.78,7.78,0,0,1-1.6.518A7.653,7.653,0,0,1,77.871,0h-9.16a8.144,8.144,0,0,1-2.3-.371,6.778,6.778,0,0,1-2.314-1.221A6.846,6.846,0,0,1,62.314-3.8a7.094,7.094,0,0,1-.713-3.33V-14a7.048,7.048,0,0,1,.713-3.311,6.846,6.846,0,0,1,1.777-2.207,6.778,6.778,0,0,1,2.314-1.221,8.144,8.144,0,0,1,2.3-.371h9.16a7.191,7.191,0,0,1,3.32.7A6.605,6.605,0,0,1,83.4-18.643a7.011,7.011,0,0,1,1.221,2.314A8.007,8.007,0,0,1,85-14Zm-5.078-6.836a2.079,2.079,0,0,0-.527-1.562,2.111,2.111,0,0,0-1.523-.508H68.75a2.115,2.115,0,0,0-1.543.518A2.028,2.028,0,0,0,66.68-14v6.875a2.063,2.063,0,0,0,.527,1.523,2.091,2.091,0,0,0,1.543.527h9.121a2.051,2.051,0,0,0,1.543-.527,2.111,2.111,0,0,0,.508-1.523ZM114.121,0H106.8L96.563-9.883a2.358,2.358,0,0,1-.8-1.953,2.648,2.648,0,0,1,.283-1.025,2.38,2.38,0,0,1,.674-.811L106-21.152h8.125l-11.953,9.629ZM94.473,0H89.395V-30.039h5.078Zm49.98-8.242a8.932,8.932,0,0,1-.381,2.705,8.079,8.079,0,0,1-1.006,2.119A6.714,6.714,0,0,1,141.6-1.855,8.983,8.983,0,0,1,139.863-.8a8.709,8.709,0,0,1-1.826.605,8.5,8.5,0,0,1-1.748.2H116.7V-5.078h19.59a2.976,2.976,0,0,0,2.275-.859,3.222,3.222,0,0,0,.811-2.3,3.719,3.719,0,0,0-.215-1.289,2.971,2.971,0,0,0-.615-1.016,2.71,2.71,0,0,0-.977-.664,3.366,3.366,0,0,0-1.279-.234h-11.68a9.052,9.052,0,0,1-2.656-.439,7.968,7.968,0,0,1-2.646-1.416,7.727,7.727,0,0,1-2.031-2.559,8.408,8.408,0,0,1-.811-3.867,8.347,8.347,0,0,1,.811-3.857,7.862,7.862,0,0,1,2.031-2.559,7.879,7.879,0,0,1,2.646-1.426,9.052,9.052,0,0,1,2.656-.439h17.285v5.078H124.609a2.916,2.916,0,0,0-2.256.879,3.293,3.293,0,0,0-.811,2.324,3.214,3.214,0,0,0,.811,2.314,2.969,2.969,0,0,0,2.256.85h11.719a8.967,8.967,0,0,1,1.738.225,8.7,8.7,0,0,1,1.826.635,8.811,8.811,0,0,1,1.729,1.084,7.316,7.316,0,0,1,1.455,1.572,7.715,7.715,0,0,1,1.006,2.109A9.053,9.053,0,0,1,144.453-8.242Zm21.953-7.793h-8.867V0H152.4V-16.035h-6.6v-5.078h6.6v-6.895h5.137v6.895h8.867Zm26.23,8.906a7.756,7.756,0,0,1-.332,2.354,6.858,6.858,0,0,1-.879,1.836,5.973,5.973,0,0,1-1.27,1.348,7.408,7.408,0,0,1-1.514.908,7.781,7.781,0,0,1-1.6.518A7.653,7.653,0,0,1,185.508,0h-9.16a8.144,8.144,0,0,1-2.3-.371,6.778,6.778,0,0,1-2.314-1.221A6.846,6.846,0,0,1,169.951-3.8a7.094,7.094,0,0,1-.713-3.33V-14a7.048,7.048,0,0,1,.713-3.311,6.846,6.846,0,0,1,1.777-2.207,6.778,6.778,0,0,1,2.314-1.221,8.144,8.144,0,0,1,2.3-.371h9.16a7.191,7.191,0,0,1,3.32.7,6.605,6.605,0,0,1,2.207,1.768,7.012,7.012,0,0,1,1.221,2.314A8.007,8.007,0,0,1,192.637-14Zm-5.078-6.836a2.079,2.079,0,0,0-.527-1.562,2.111,2.111,0,0,0-1.523-.508h-9.121a2.115,2.115,0,0,0-1.543.518A2.028,2.028,0,0,0,174.316-14v6.875a2.063,2.063,0,0,0,.527,1.523,2.091,2.091,0,0,0,1.543.527h9.121a2.051,2.051,0,0,0,1.543-.527,2.111,2.111,0,0,0,.508-1.523Zm27.871-2.07H204a2.144,2.144,0,0,0-1.562.518A2.028,2.028,0,0,0,201.914-14V0h-5.078V-14a7.661,7.661,0,0,1,.332-2.344,6.712,6.712,0,0,1,.889-1.826,6.161,6.161,0,0,1,1.279-1.348,7.408,7.408,0,0,1,1.514-.908,7.781,7.781,0,0,1,1.6-.518,7.569,7.569,0,0,1,1.514-.166H215.43Zm25.977,1.914a7.852,7.852,0,0,1-.371,2.275,6.8,6.8,0,0,1-1.2,2.266,6.7,6.7,0,0,1-2.168,1.748,6.917,6.917,0,0,1-3.252.7h-9.16v-4.824h9.16a2.035,2.035,0,0,0,1.6-.635,2.275,2.275,0,0,0,.566-1.572,1.987,1.987,0,0,0-.635-1.562,2.223,2.223,0,0,0-1.533-.566h-9.16a2.035,2.035,0,0,0-1.6.635,2.275,2.275,0,0,0-.566,1.572v7.09a2.01,2.01,0,0,0,.635,1.582,2.275,2.275,0,0,0,1.572.566h9.121V0h-9.16a7.851,7.851,0,0,1-2.275-.371,6.8,6.8,0,0,1-2.266-1.2,6.7,6.7,0,0,1-1.748-2.168,6.917,6.917,0,0,1-.7-3.252v-7.129a7.852,7.852,0,0,1,.371-2.275,6.8,6.8,0,0,1,1.2-2.266A6.7,6.7,0,0,1,222-20.41a6.917,6.917,0,0,1,3.252-.7h9.16a7.851,7.851,0,0,1,2.275.371,6.8,6.8,0,0,1,2.266,1.2,6.7,6.7,0,0,1,1.748,2.168A6.917,6.917,0,0,1,241.406-14.121Z" transform="translate(-2.91 30.039)"/>
</svg>
